# xmcd
#
# Track frame offsets:
#	150
#	12408
#	26925
#	55732
#	69685
#	82525
#	96076
#	116205
#	129649
#	147210
#	164390
#	184593
#	207146
#	220681
#	248785
#	262212
#
# Disc length: 3798 seconds
#
# Revision: 1
# Processed by: cddbd v1.4PL0 Copyright (c) Steve Scherf et al.
# Submitted via: audiograbber 1.82.02
#
DISCID=e50ed410
DTITLE=El Tri - Un Cuarto De Siglo CD-1 En Vivo
DYEAR=1995
DGENRE=Rock
TTITLE0=Oye (en vivo)
TTITLE1=Inyecciones (en vivo)
TTITLE2=San Juanico (en vivo)
TTITLE3=Vicioso (en vivo)
TTITLE4=Dificil (en vivo)
TTITLE5=No puedo dejar de chupar (en vivo)
TTITLE6=Santa Martha (en vivo)
TTITLE7=Chilango incomprendido (en vivo)
TTITLE8=El hablador (en vivo)
TTITLE9=Tomate la foto (en vivo)
TTITLE10=Que viva el rocanrol (en vivo)
TTITLE11=Igual pa' todos (en vivo)
TTITLE12=El semental (en vivo)
TTITLE13=El boogie de el tri (en vivo)
TTITLE14=La encuerada de avandaro (en vivo)
TTITLE15=Viejas de vecindad (en vivo)
EXTD=Live Album to conmemorate Tri's 25th Anniversary
EXTT0=
EXTT1=
EXTT2=
EXTT3=
EXTT4=
EXTT5=
EXTT6=
EXTT7=
EXTT8=
EXTT9=
EXTT10=
EXTT11=
EXTT12=
EXTT13=
EXTT14=
EXTT15=
PLAYORDER=
